<svg xmlns="http://www.w3.org/2000/svg" version="1.1" xmlns:xlink="http://www.w3.org/1999/xlink" width="512" height="512" x="0" y="0" viewBox="0 0 512 512" style="enable-background:new 0 0 512 512" xml:space="preserve" class=""><g><path d="M496 62H16C7.716 62 1 68.716 1 77v45h510V77c0-8.284-6.716-15-15-15zM1 497c0 8.284 6.716 15 15 15h480c8.284 0 15-6.716 15-15v-45H1zM76 247c-8.581 0-15.562 6.981-15.562 15.562v48.876C60.438 320.019 67.419 327 76 327s15.562-6.981 15.562-15.562v-48.876C91.562 253.981 84.581 247 76 247z" fill="#f0f0f0" opacity="1" data-original="#000000" class=""></path><path d="M151 152H1v270h150zm-29.438 159.438C121.562 336.561 101.123 357 76 357s-45.562-20.439-45.562-45.562v-48.876C30.438 237.439 50.877 217 76 217s45.562 20.439 45.562 45.562zM181 152v270h150V152zm120.562 159.438C301.562 336.561 281.123 357 256 357s-45.562-20.439-45.562-45.562v-48.876C210.438 237.439 230.877 217 256 217s45.562 20.439 45.562 45.562z" fill="#f0f0f0" opacity="1" data-original="#000000" class=""></path><path d="M256 247c-8.581 0-15.562 6.981-15.562 15.562v48.876c0 8.581 6.981 15.562 15.562 15.562s15.562-6.981 15.562-15.562v-48.876c0-8.581-6.981-15.562-15.562-15.562zM451.562 166.438V152h-31.124v14.438c0 8.581 6.981 15.562 15.562 15.562s15.562-6.981 15.562-15.562z" fill="#f0f0f0" opacity="1" data-original="#000000" class=""></path><path d="M481.562 166.438C481.562 191.561 461.123 212 436 212s-45.562-20.439-45.562-45.562V152H361v270h150V152h-29.438zM462.756 377c0 8.284-6.716 15-15 15s-15-6.716-15-15v-95h-8.512c-8.284 0-15-6.716-15-15s6.716-15 15-15h23.512c8.284 0 15 6.716 15 15zM156 15c0-8.284-6.716-15-15-15H91c-8.284 0-15 6.716-15 15v17h80z" fill="#f0f0f0" opacity="1" data-original="#000000" class=""></path></g></svg>