<svg xmlns="http://www.w3.org/2000/svg" version="1.1" xmlns:xlink="http://www.w3.org/1999/xlink" width="512" height="512" x="0" y="0" viewBox="0 0 24 24" style="enable-background:new 0 0 512 512" xml:space="preserve" class=""><g><path d="m20.094 6.819 1.613-1.612a.999.999 0 1 0-1.414-1.414L18.68 5.405A10.45 10.45 0 0 0 13 3.051V2h2a1 1 0 1 0 0-2H9a1 1 0 1 0 0 2h2v1.051C5.678 3.556 1.5 8.048 1.5 13.5 1.5 19.29 6.21 24 12 24s10.5-4.71 10.5-10.5c0-2.536-.904-4.864-2.406-6.681zM15.6 18.3a1 1 0 0 1-1.4-.2l-3-4a.997.997 0 0 1-.2-.6V8a1 1 0 1 1 2 0v5.167l2.8 3.733a1 1 0 0 1-.2 1.4z" fill="#f0f0f0" opacity="1" data-original="#000000" class=""></path></g></svg>