<svg xmlns="http://www.w3.org/2000/svg" version="1.1" xmlns:xlink="http://www.w3.org/1999/xlink" width="512" height="512" x="0" y="0" viewBox="0 0 32 32" style="enable-background:new 0 0 512 512" xml:space="preserve" class=""><g><path d="M16 5a11 11 0 1 0 11 11A11.012 11.012 0 0 0 16 5zM16 4a1 1 0 0 0 1-1V2a1 1 0 0 0-2 0v1a1 1 0 0 0 1 1z" fill="#f0f0f0" opacity="1" data-original="#000000"></path><path d="M16 28a1 1 0 0 0-1 1v1a1 1 0 0 0 2 0v-1a1 1 0 0 0-1-1zM30 15h-1a1 1 0 0 0 0 2h1a1 1 0 0 0 0-2zM3 15H2a1 1 0 0 0 0 2h1a1 1 0 0 0 0-2zM25.9 7.515l.707-.707a1 1 0 1 0-1.414-1.414l-.708.706A1 1 0 0 0 25.9 7.515zM6.1 24.485l-.707.707a1 1 0 1 0 1.414 1.414l.708-.706A1 1 0 0 0 6.1 24.485zM25.9 24.485a1 1 0 0 0-1.415 1.415l.707.707a1 1 0 1 0 1.414-1.414zM6.1 7.515A1 1 0 0 0 7.515 6.1l-.707-.707a1 1 0 1 0-1.415 1.415z" fill="#f0f0f0" opacity="1" data-original="#000000"></path></g></svg>