<svg xmlns="http://www.w3.org/2000/svg" version="1.1" xmlns:xlink="http://www.w3.org/1999/xlink" width="512" height="512" x="0" y="0" viewBox="0 0 24 24" style="enable-background:new 0 0 512 512" xml:space="preserve" class=""><g><path d="M19.25 0H4.75A2.752 2.752 0 0 0 2 2.75v18.5A2.752 2.752 0 0 0 4.75 24h14.5A2.752 2.752 0 0 0 22 21.25V2.75A2.752 2.752 0 0 0 19.25 0zM9.78 18.72a.75.75 0 1 1-1.06 1.06L8 19.061l-.72.72a.747.747 0 0 1-1.06-.001.75.75 0 0 1 0-1.061L6.939 18l-.72-.72a.75.75 0 1 1 1.061-1.061l.72.72.72-.72a.75.75 0 1 1 1.061 1.061l-.72.72zm-.53-5.97h-.5v.5a.75.75 0 0 1-1.5 0v-.5h-.5a.75.75 0 0 1 0-1.5h.5v-.5a.75.75 0 0 1 1.5 0v.5h.5a.75.75 0 0 1 0 1.5zm8 7.25h-2.5a.75.75 0 0 1 0-1.5h2.5a.75.75 0 0 1 0 1.5zm0-2.5h-2.5a.75.75 0 0 1 0-1.5h2.5a.75.75 0 0 1 0 1.5zm0-4.5h-2.5a.75.75 0 0 1 0-1.5h2.5a.75.75 0 0 1 0 1.5zM19 6.25C19 7.215 18.215 8 17.25 8H6.75C5.785 8 5 7.215 5 6.25v-1.5C5 3.785 5.785 3 6.75 3h10.5c.965 0 1.75.785 1.75 1.75z" fill="#f0f0f0" opacity="1" data-original="#000000" class=""></path></g></svg>