<svg width="64" height="64" viewBox="0 0 64 64" fill="none" xmlns="http://www.w3.org/2000/svg">
<path d="M56.2424 3.87879C56.2424 1.7366 57.979 0 60.1212 0V0C62.2634 0 64 1.73659 64 3.87879V60.1212C64 62.2634 62.2634 64 60.1212 64V64C57.979 64 56.2424 62.2634 56.2424 60.1212V3.87879Z" fill="#F0F0F0"/>
<rect x="17.4545" y="28.1212" width="33.9394" height="7.75758" rx="3.87879" fill="#F0F0F0"/>
<path d="M3 34.2169C1.66666 33.4471 1.66667 31.5226 3 30.7528L18.0909 22.0401C19.4242 21.2703 21.0909 22.2325 21.0909 23.7721L21.0909 41.1976C21.0909 42.7372 19.4242 43.6994 18.0909 42.9296L3 34.2169Z" fill="#F0F0F0"/>
</svg>
